<svg xmlns="http://www.w3.org/2000/svg" width="745" height="555" fill="none"><path fill="#ABABAB" d="m124.881 320.897 33.042-6.33 44.941-25.069c4.714-2.629 4.416-9.484-.503-11.701l-23.066-10.352-54.414 53.452Z" opacity=".34"/><path fill="#0BAF1B" d="m169.616 164.905-.183-.115-.435 102.358c0 .434-.229.845-.618 1.051l-66.404 37.935c-.824.457-1.396-105.808-1.396-105.808 0-.434.229-.845.618-1.051l66.13-37.752c.343-.183.824-.366 1.19-.206l2.196 1.143-1.098 2.445Z"/><path fill="#00C213" d="m103.143 200.395 66.404-37.935a1.224 1.224 0 0 1 1.831 1.074l-.412 104.756c0 .435-.229.846-.618 1.052l-66.404 37.935c-.321-.548-.893-1.257-1.831-1.074l.435-104.734c-.023-.457.229-.845.595-1.074Z"/><path fill="snow" d="M188.471 175.714c-12.036-2.262-14.827-3.519-18.443-9.027l-62.743 35.879c.526 4.136 4.919 9.644 19.907 9.027l61.279-35.879Z"/><path fill="#00C213" d="m191.789 176.148-3.112-1.714c-.366-.32-1.007-.251-1.487.023l-65.65 37.479a1.182 1.182 0 0 0-.618 1.051l-.434 104.734a1.23 1.23 0 0 0 1.83 1.074l66.405-37.936c.389-.205.618-.617.618-1.051l.411-100.483 1.762-.183.275-2.994Z"/><path fill="#00C213" d="M123.897 214.564c-12.333.868-19.198-6.239-23.248-14.649l1.03 107.499c.205 12.569 20.319 15.449 22.218 13.597V214.564Z"/><path fill="#01E45C" d="m124.332 214.152 66.404-37.935a1.224 1.224 0 0 1 1.831 1.074l-.435 104.734c0 .434-.229.845-.618 1.051l-66.633 37.798c-.824.457-1.602 0-1.602-.937l.435-104.733c0-.435.229-.823.618-1.052Z"/><path fill="#ABABAB" d="m178.288 345.784 32.058-6.491 40.617-24.909c4.256-2.605 2.7-9.324-2.655-11.426l-25.079-9.895-44.941 52.721Z" opacity=".34"/><path fill="#7C64BA" d="m194.809 192.899-.206-.114 18.238 100.049c.068.434-.092.823-.435 1.028l-59.86 37.684c-.733.458-20.709-103.408-20.709-103.408-.069-.434.092-.823.435-1.028l59.586-37.524c.297-.183.755-.366 1.144-.206l2.425 1.097-.618 2.422Z"/><path fill="#504078" d="m134.469 228.23 59.86-37.685c.732-.457 1.876.115 2.036 1.029l18.672 102.38c.069.434-.091.823-.435 1.028l-59.86 37.684c-.434-.548-1.121-1.211-2.036-1.028l-18.672-102.38c-.069-.434.091-.823.435-1.028Z"/><path fill="snow" d="M215.747 203.297c-12.494-2.102-15.56-3.313-20.182-8.638l-56.543 35.65c1.282 4.045 6.705 9.393 21.67 8.638l55.055-35.65Z"/><path fill="#504078" d="m219.156 203.686-3.432-1.646c-.435-.297-1.053-.251-1.488.023l-59.173 37.273c-.344.206-.504.617-.435 1.028l18.672 102.38c.16.914 1.304 1.486 2.036 1.029l59.861-37.684c.343-.206.503-.618.434-1.029l-17.916-98.243 1.739-.206-.298-2.925Z"/><path fill="#8B73CB" d="M157.923 241.873c-12.242.959-20.434-5.919-26.04-14.101l20.64 105.077c2.494 12.295 23.248 14.923 24.827 13.095l-19.427-104.071Z"/><path fill="#7C64BA" d="m158.266 241.461 59.86-37.684c.733-.457 1.877.114 2.037 1.029l18.672 102.379c.069.435-.092.823-.435 1.029l-60.112 37.57c-.732.457-1.624.023-1.785-.892l-18.671-102.38c-.069-.434.091-.845.434-1.051Z"/><path stroke="#433878" stroke-linecap="round" stroke-linejoin="round" stroke-miterlimit="10" stroke-width="2.576" d="m160.532 245.186 17.985 96.37"/><path stroke="snow" stroke-miterlimit="10" stroke-width="3.794" d="M210.141 247.951 186.48 261c-4.393 2.423-9.29.617-10.869-4.022l-.572-1.668c-1.579-4.639.732-10.421 5.126-12.866l23.66-13.049c4.394-2.422 9.29-.617 10.869 4.022l.572 1.668c1.579 4.639-.732 10.421-5.125 12.866Z"/><path fill="snow" d="M100.923 255.676c5.492 14.374 14.554 23.012 22.334 27.149v-13.461c-7.941-4.776-15.4-14.9-22.334-30.371v16.683Z"/><path fill="#2B2B2B" d="m216.754 360.432.068-9.415 7.643 6.444 1.648-3.77 191.639-110.493c2.311-1.325 6.888-1.165 9.565.366l83.017 47.579v-1.325l12.609 6.124 1.761-.708-.228 5.804c-.183 1.257-.687 1.783-1.465 2.24l-199.42 115.291c-2.311 1.326-6.384 1.326-9.038-.228l-95.557-55.029c-1.464-.846-2.197-1.874-2.197-2.903l-.045.023Z"/><path fill="snow" d="M323.661 410.822 523.08 295.828c2.311-1.326 2.014-3.679-.641-5.211l-95.556-55.097c-2.655-1.532-6.728-1.714-9.039-.366L218.425 350.149c-2.311 1.325-2.014 3.679.64 5.21l95.557 55.098c2.677 1.531 6.728 1.691 9.039.365Z"/><path fill="snow" d="M196.755 213.375c-2.654 1.531-4.439 5.051-3.982 7.862l20.686 127.746c.458 2.811 2.975 3.862 5.629 2.331l195.896-112.961c2.654-1.531 4.439-5.05 3.982-7.861L398.28 102.746c-.458-2.811-2.975-3.862-5.629-2.331l-195.896 112.96Z"/><path fill="snow" d="M184.902 202.109v-.274c0-.046 0-.092.023-.16 0-.069.023-.137.023-.206 0-.023 0-.068.023-.091v-.115c0-.068.022-.137.045-.205.023-.069.023-.137.046-.206.023-.069.023-.137.046-.206a.66.66 0 0 0 .046-.205c0-.023 0-.046.023-.046 0-.023-.001-.023.022-.046 0-.045.023-.068.023-.114l.069-.206a.325.325 0 0 0 .046-.16v-.045c.023-.069.045-.137.068-.183.023-.069.046-.114.069-.183 0-.023.023-.046.023-.069 0 0 0-.022.023-.022 0-.023.023-.046.023-.069a.444.444 0 0 1 .091-.183c.046-.045.069-.137.092-.183v-.022s0-.023.023-.023c.022-.069.068-.137.091-.206.023-.069.069-.114.092-.183a.462.462 0 0 1 .068-.114c0-.023.023-.046.023-.046.069-.091.115-.183.183-.297.023-.023.046-.068.069-.091v-.023c.068-.114.16-.229.252-.343l.045-.046c0-.022.023-.022.023-.045.023-.046.069-.069.092-.115a.596.596 0 0 1 .16-.182l.069-.069c0-.023.022-.023.022-.046l.069-.068c.046-.069.114-.114.16-.183.046-.046.092-.091.115-.137l.023-.023.022-.023c.046-.068.115-.114.183-.16.069-.068.115-.114.184-.16.068-.046.114-.114.183-.16.068-.045.137-.114.183-.16l.023-.023.022-.022c.046-.046.092-.069.138-.115l.206-.137c.023-.023.045-.023.045-.046 0 0 .023 0 .023-.022.046-.023.069-.046.115-.069a.9.9 0 0 1 .206-.114c.023 0 4.736-2.72 4.736-2.743l5.812 3.52s-4.988 2.605-5.057 2.651l-.206.137-.206.137c-.068.046-.137.091-.183.137l-.068.069c-.092.091-.206.16-.298.251-.091.091-.206.183-.297.274l-.046.046-.275.274-.045.046c-.092.091-.16.183-.252.297-.023.023-.023.046-.046.046-.068.091-.16.205-.229.297-.045.045-.068.114-.114.16l-.137.205c-.046.069-.092.16-.138.229-.022.046-.068.091-.091.16l-.069.137c-.045.091-.091.16-.137.251-.023.023-.023.046-.046.069a2.348 2.348 0 0 0-.16.343s0 .023-.023.023c-.046.114-.114.251-.16.365 0 .023 0 .023-.023.046-.046.114-.091.251-.137.366 0 .022 0 .022-.023.045a2.27 2.27 0 0 0-.115.366c0 .023.001.046-.022.046-.046.114-.069.251-.092.365 0 .023 0 .046-.023.046-.023.114-.046.251-.068.366v.045a2.003 2.003 0 0 0-.046.366v.046c-.023.114-.023.251-.023.365v.617c0 .069 0 .16.023.229 0 .091.023.16.023.251 0 .069.023.114.023.183 0 0 .022.114.045.343l.504 3.154c.297-.16.915-.526.938-.549l5.904 3.199s-1.419.823-1.488.869l-.206.137-.206.137c-.068.046-.137.091-.183.137l-.068.069c-.092.091-.206.16-.298.251-.091.092-.206.183-.297.274l-.046.046-.275.274-.045.046c-.092.091-.161.183-.252.297-.023.023-.023.046-.046.046-.069.091-.16.205-.229.297-.046.046-.068.114-.114.16l-.137.206c-.046.068-.092.159-.138.228-.023.046-.068.091-.091.16l-.069.137c-.046.092-.091.16-.137.251-.023.023-.023.046-.046.069-.069.114-.114.229-.16.343 0 0 0 .023-.023.023-.046.114-.114.251-.16.365 0 .023 0 .023-.023.046-.046.114-.092.251-.137.366 0 .023 0 .023-.023.045a2.27 2.27 0 0 0-.115.366c0 .023 0 .046-.023.046-.045.114-.068.251-.091.365 0 .023 0 .046-.023.046-.023.114-.046.251-.069.366v.045a2 2 0 0 0-.045.366v.046c0 .045 0 .091-.023.16l18.305 113.006c.092.594 2.426 4.434 1.9 4.114l-1.648-1.394 1.945 12.02c.092.594 2.426 4.434 1.899 4.114l-5.469-4.776a6.47 6.47 0 0 1-2.219-3.908l-20.022-123.542c-.091-.594-.252-1.508-.252-1.508 0-.069-.022-.114-.022-.183a.404.404 0 0 0-.023-.16v-.069c0-.068 0-.159-.023-.228v-.846l-1.899-11.723c-.092-.594-.252-1.508-.252-1.508 0-.069-.023-.115-.023-.183 0-.046 0-.114-.023-.16v-.069c0-.068 0-.16-.023-.228V202.36c.046-.091.046-.183.046-.251Z"/><path fill="#EDE1E1" d="m189.982 196.03 4.279 2.468a.663.663 0 0 0 .709 0L389.447 86.36l1.076-.617c.045-.023.114-.068.16-.091.068-.046.137-.069.206-.115.16-.09.32-.16.48-.205.023 0 .023 0 .046-.023.16-.046.297-.114.458-.137h.045a3.27 3.27 0 0 1 .458-.091h.023c.137-.023.275-.023.412-.023h.069c.137 0 .274 0 .389.022.045 0 .068 0 .114.023.091.023.183.023.274.046.069.023.161.046.229.069.069.022.115.045.183.068.161.069.321.137.458.206l-5.698-3.314a1.648 1.648 0 0 0-.457-.206c-.023 0-.023-.022-.046-.022h-.023c-.114-.046-.252-.069-.389-.115h-.023c-.046 0-.068 0-.114-.022-.069 0-.138-.023-.206-.023h-.618c-.069 0-.16.022-.229.022h-.068c-.023 0-.046 0-.092.023-.023 0-.069 0-.092.023-.068.023-.137.023-.183.046h-.045c-.069.023-.161.046-.229.069l-.206.068-.206.069a.815.815 0 0 0-.206.091c-.069.023-.137.069-.206.092-.069.022-.137.068-.206.114-.023.023-.297.16-.503.297l-.298.16h-.023L190.005 194.819c-.504.229-.504.914-.023 1.211Z"/><path fill="#2B2B2B" d="M194.604 198.498c-2.654 1.531-4.439 5.051-3.982 7.862l20.686 127.746c.458 2.811 2.975 3.862 5.629 2.331l195.896-112.961c2.654-1.531 4.439-5.05 3.981-7.861L396.129 87.868c-.458-2.81-2.975-3.862-5.629-2.33l-195.896 112.96Z"/><path fill="#545454" d="M201.606 206.725c-2.517 1.417-4.234 4.502-3.822 6.856l18.718 107.179c.412 2.354 2.792 3.131 5.309 1.691l185.805-105.122c2.517-1.417 4.233-4.502 3.821-6.856l-18.718-107.179c-.412-2.354-2.791-3.131-5.308-1.691L201.606 206.725Z"/><path stroke="#463757" stroke-linecap="round" stroke-linejoin="round" stroke-miterlimit="10" stroke-width="2.429" d="M419.995 234.925 218.974 350.788"/><path fill="#DFDFDF" d="M413.039 263.217c.298.16.893.091 1.327-.16l12.219-7.039c.435-.251.572-.594.275-.777l-8.1-4.661c-.298-.16-.893-.092-1.327.159l-12.22 7.039c-.434.252-.572.594-.274.777l8.1 4.662ZM398.852 284.241c.297.16.892.115 1.327-.16l12.219-7.038c.435-.251.549-.594.252-.777l-8.101-4.662c-.297-.16-.892-.091-1.327.16l-12.219 7.039c-.458.251-.572.594-.275.754l8.124 4.684ZM406.037 292.994c.297.16.892.091 1.327-.16l12.219-7.039c.435-.251.572-.594.275-.754l-8.101-4.684c-.297-.16-.892-.092-1.327.16l-12.219 7.038c-.435.252-.549.594-.275.754l8.101 4.685ZM425.418 294.662c.298.16.892.092 1.327-.16l12.219-7.038c.435-.252.549-.594.275-.754l-8.1-4.662c-.298-.16-.893-.092-1.328.16l-12.219 7.038c-.434.252-.549.594-.274.754l8.1 4.662ZM459.055 289.772c.297.16.892.091 1.327-.16l12.219-7.039c.435-.251.572-.594.275-.777l-9.519-5.484c-.275-.16-.893-.092-1.327.16l-12.22 7.038c-.434.252-.549.594-.274.754l9.519 5.508ZM437.981 301.907c.297.16 1.007.045 1.579-.297l16.017-9.233c.572-.32.801-.731.526-.914l-9.519-5.485c-.274-.16-1.006-.023-1.578.297l-16.018 9.233c-.572.343-.801.754-.526.914l9.519 5.485ZM332.791 362.626c.251.137.8.046 1.235-.205l12.219-7.039c.435-.251.618-.571.367-.709l-3.524-2.033c-.252-.138-.801-.046-1.259.205l-12.219 7.039c-.435.251-.595.571-.366.708l3.547 2.034ZM316.452 372.293c.252.137.801.045 1.235-.206l12.22-7.038c.434-.252.617-.572.366-.709l-3.524-2.034c-.252-.137-.801-.045-1.259.206l-12.219 7.038c-.435.252-.595.572-.366.709l3.547 2.034ZM299.13 382.051c.229.137.778.046 1.236-.206l12.219-7.038c.435-.252.618-.572.389-.709l-3.387-1.965c-.228-.137-.801-.023-1.235.228l-12.22 7.039c-.434.251-.617.571-.366.708l3.364 1.943ZM309.794 368.568c.228.137.778.046 1.235-.206l12.219-7.038c.435-.252.618-.572.389-.709l-3.386-1.965c-.229-.137-.801-.023-1.236.228l-12.219 7.039c-.435.251-.618.571-.366.708l3.364 1.943ZM353.911 350.354c.297.16.892.092 1.327-.16l79.539-45.842c.434-.251.572-.594.274-.777l-9.519-5.485c-.274-.16-.892-.091-1.327.16l-79.539 45.843c-.435.251-.572.594-.275.777l9.52 5.484Z"/><path fill="#DFDFDF" d="M440.177 298.89c.023 0 .069 0 .137-.046l9.336-5.393c.046-.023.069-.069.069-.069l-.595-.342c-.023 0-.069 0-.137.045l-9.336 5.394c-.046.023-.069.068-.069.068l.595.343ZM464.112 284.059h.069l3.959-2.286c.022-.022.022-.022 0-.045l-.595-.343h-.069l-3.959 2.285c-.023.023-.023.023 0 .046l.595.343ZM408.668 304.329c.298.16.893.092 1.327-.16l12.219-7.039c.435-.251.572-.594.275-.777l-8.1-4.662c-.298-.16-.893-.091-1.327.16l-12.22 7.039c-.434.251-.549.594-.274.777l8.1 4.662ZM391.85 314.019c.297.159.892.091 1.327-.16l12.219-7.039c.435-.251.572-.594.275-.777l-8.101-4.662c-.297-.16-.892-.091-1.327.16l-12.219 7.039c-.435.251-.549.594-.275.754l8.101 4.685ZM375.008 323.708c.298.16.893.091 1.327-.16l12.22-7.038c.434-.252.549-.595.274-.755l-8.1-4.661c-.298-.16-.893-.092-1.327.159l-12.22 7.039c-.434.251-.549.594-.274.754l8.1 4.662ZM358.19 333.42c.297.16.892.092 1.327-.159l12.219-7.039c.435-.252.572-.594.275-.777l-8.101-4.662c-.297-.16-.892-.092-1.327.16l-12.219 7.039c-.435.251-.549.594-.275.754l8.101 4.684ZM341.348 343.11c.298.16.893.091 1.327-.16l12.22-7.039c.434-.251.549-.594.274-.754l-8.1-4.662c-.298-.16-.893-.091-1.327.16l-12.22 7.039c-.434.251-.572.594-.274.777l8.1 4.639ZM324.507 352.799c.297.16.892.092 1.327-.16l12.219-7.038c.435-.251.572-.594.275-.777l-8.1-4.662c-.298-.16-.893-.091-1.328.16l-12.219 7.039c-.435.251-.549.594-.275.777l8.101 4.661ZM286.614 374.647c.297.16.892.091 1.327-.16l33.294-19.197c.435-.251.549-.594.274-.754l-8.1-4.662c-.297-.16-.892-.091-1.327.16l-33.294 19.197c-.435.251-.549.594-.275.777l8.101 4.639ZM389.287 301.678c.297.16.869.091 1.327-.16l12.219-7.039c.435-.251.572-.594.275-.754l-8.1-4.684c-.298-.16-.893-.092-1.328.16l-12.219 7.038c-.435.252-.549.594-.274.754l8.1 4.685ZM372.445 312.327c.298.16.893.092 1.328-.16l12.219-7.038c.434-.252.549-.594.274-.754l-8.1-4.685c-.298-.16-.892-.091-1.327.16l-12.219 7.039c-.435.251-.55.594-.275.754l8.1 4.684ZM355.627 322.04c.297.16.892.091 1.327-.16l12.219-7.039c.435-.251.572-.594.275-.777l-8.101-4.685c-.297-.16-.892-.091-1.327.16l-12.219 7.039c-.435.251-.549.594-.275.754l8.101 4.708ZM338.785 331.729c.298.16.893.092 1.328-.16l12.219-7.038c.435-.252.572-.594.274-.754l-8.1-4.685c-.297-.16-.892-.092-1.327.16l-12.219 7.038c-.435.252-.549.595-.275.755l8.1 4.684ZM321.944 341.419c.298.16.893.091 1.327-.16l12.22-7.039c.434-.251.572-.594.274-.754l-8.1-4.685c-.298-.16-.87-.091-1.327.16l-12.22 7.039c-.435.251-.549.594-.274.754l8.1 4.685ZM305.125 351.131c.298.16.893.092 1.328-.16l12.219-7.038c.435-.252.572-.595.274-.777l-8.1-4.685c-.297-.16-.892-.092-1.327.16l-12.219 7.038c-.435.252-.549.595-.275.755l8.1 4.707ZM288.307 360.821c.298.16.893.091 1.327-.16l12.22-7.039c.434-.251.549-.594.274-.754l-8.1-4.685c-.298-.16-.87-.091-1.327.16l-12.22 7.039c-.435.251-.549.594-.274.754l8.1 4.685ZM382.102 293.908c.297.16.892.092 1.327-.16l12.219-7.038c.435-.252.549-.595.252-.755l-8.1-4.661c-.298-.16-.893-.092-1.328.159l-12.219 7.039c-.435.252-.549.594-.274.754l8.123 4.662ZM365.283 303.598c.298.16.893.091 1.327-.16l12.219-7.039c.435-.251.573-.594.275-.777l-8.1-4.662c-.298-.16-.893-.091-1.327.16l-12.22 7.039c-.434.251-.549.594-.274.754l8.1 4.685ZM348.442 313.287c.297.16.892.092 1.327-.16l12.219-7.038c.435-.252.549-.594.252-.754l-8.101-4.662c-.297-.16-.892-.092-1.327.16l-12.219 7.038c-.435.252-.572.594-.275.754l8.124 4.662ZM331.623 323c.298.16.893.114 1.328-.16l12.219-7.039c.434-.251.572-.594.274-.777l-8.1-4.662c-.298-.16-.892-.091-1.327.16l-12.219 7.039c-.435.251-.55.594-.275.754l8.1 4.685ZM314.782 332.689c.297.16.892.092 1.327-.137l12.219-7.039c.435-.251.549-.594.275-.777l-8.101-4.661c-.297-.16-.869-.092-1.327.16l-12.219 7.038c-.435.252-.549.594-.274.754l8.1 4.662ZM297.963 342.402c.298.16.893.091 1.327-.16l12.22-7.039c.434-.251.549-.594.251-.777l-8.077-4.662c-.298-.16-.893-.091-1.327.16l-12.22 7.039c-.434.251-.572.594-.274.777l8.1 4.662ZM281.122 352.091c.297.16.892.091 1.327-.16l12.219-7.039c.435-.251.549-.594.275-.777l-8.1-4.661c-.298-.16-.893-.092-1.328.16l-12.219 7.038c-.434.252-.549.594-.274.754l8.1 4.685ZM415.693 274.552c.297.16.892.091 1.327-.16l20.731-11.952c.435-.251.573-.594.275-.777l-8.1-4.662c-.298-.16-.893-.091-1.327.16l-20.732 11.952c-.435.251-.572.594-.274.754l8.1 4.685ZM253.16 355.359c.297.16.892.092 1.327-.16l20.731-11.952c.435-.251.549-.594.275-.754l-8.101-4.662c-.297-.16-.892-.091-1.327.16l-20.731 11.952c-.435.251-.572.594-.275.777l8.101 4.639ZM422.855 283.282c.298.16.893.091 1.328-.16l24.713-14.237c.434-.252.572-.595.274-.755l-8.1-4.684c-.298-.16-.893-.092-1.327.16l-24.713 14.237c-.435.251-.55.594-.275.754l8.1 4.685ZM442.237 284.973c.297.16.892.091 1.327-.16l16.475-9.484c.435-.251.549-.594.275-.777l-8.101-4.662c-.297-.16-.892-.091-1.327.16l-16.475 9.484c-.435.251-.549.594-.275.777l8.101 4.662ZM396.22 272.906c.298.16.893.092 1.328-.159l12.219-7.039c.435-.251.572-.594.274-.777l-8.1-4.662c-.297-.16-.892-.091-1.327.16l-12.219 7.039c-.435.251-.572.594-.275.777l8.1 4.661ZM379.448 282.573c.297.16.892.092 1.327-.16l12.219-7.038c.435-.252.549-.594.275-.777l-8.101-4.662c-.297-.16-.892-.092-1.327.16l-12.219 7.038c-.435.252-.572.595-.275.777l8.101 4.662ZM362.629 292.263c.298.16.893.114 1.327-.16l12.22-7.039c.434-.251.549-.594.274-.754l-8.1-4.662c-.298-.16-.893-.091-1.327.16l-12.22 7.039c-.434.251-.549.594-.274.754l8.1 4.662ZM345.81 301.952c.298.16.893.092 1.328-.16l12.219-7.038c.434-.252.572-.594.274-.777l-8.1-4.662c-.298-.16-.892-.092-1.327.16l-12.219 7.038c-.435.252-.572.595-.275.777l8.1 4.662ZM328.969 311.665c.298.16.87.114 1.327-.16l12.219-7.039c.435-.251.572-.594.275-.777l-8.1-4.662c-.298-.16-.893-.091-1.327.16l-12.22 7.039c-.434.251-.549.594-.251.754l8.077 4.685ZM312.128 321.354c.297.16.892.092 1.327-.16l12.219-7.038c.435-.252.549-.595.252-.755l-8.101-4.661c-.297-.16-.892-.092-1.327.16l-12.219 7.038c-.435.252-.549.594-.275.754l8.124 4.662ZM295.309 331.067c.298.16.893.091 1.328-.16l12.219-7.039c.434-.251.572-.594.274-.777l-8.1-4.662c-.298-.16-.892-.091-1.327.16l-12.219 7.039c-.435.251-.572.594-.275.777l8.1 4.662ZM278.49 340.756c.298.16.893.092 1.327-.16l12.242-7.038c.435-.252.55-.595.252-.755l-8.1-4.662c-.298-.159-.893-.091-1.327.16l-12.243 7.039c-.434.251-.549.594-.251.754l8.1 4.662ZM268.697 349.303c.206-.114.457-.206.709-.228.252-.023.458 0 .595.091l8.1 4.662c.138.068.206.206.138.343-.046.16-.206.297-.412.411l-3.181 1.828 10.618 6.125c.137.068.183.205.137.343-.046.159-.206.297-.412.411l-8.238 4.753a1.855 1.855 0 0 1-.709.229c-.252.023-.481 0-.618-.069l-19.244-11.106c-.137-.069-.183-.206-.137-.343.045-.16.206-.297.412-.411l12.242-7.039Z"/><path fill="#DFDFDF" d="M444.434 281.042c.022 0 .068 0 .137-.046l9.336-5.393a.174.174 0 0 0 .068-.068l-.595-.343c-.023 0-.068 0-.137.046l-9.336 5.393c-.045.023-.068.068-.068.068l.595.343ZM395.694 359.153l44.14-24.727c.503-.297.503-.777-.023-1.074l-18.764-10.787c-.526-.297-1.373-.319-1.876-.022l-44.14 24.726c-.503.297-.503.777.023 1.074l18.763 10.787c.527.297 1.373.297 1.877.023Z"/><path fill="snow" d="m231.444 309.494 162.122-93.491c2.677-1.553 4.37-5.713 3.776-9.323l-14.096-86.361c-.595-3.61-3.226-5.256-5.904-3.725l-162.121 93.491c-2.678 1.554-4.371 5.713-3.776 9.324l14.096 86.36c.572 3.588 3.226 5.256 5.903 3.725Z"/><path fill="#7C7C7C" d="m213.024 229.052-1.716-10.558c-.504-3.108 1.601-7.061 4.713-8.867l160.543-92.576c3.112-1.805 6.041-.731 6.544 2.354l1.717 10.558-171.801 99.089Z"/><path fill="#fff" d="M244.83 202.223c.298 1.303 1.442 1.851 2.563 1.189 1.121-.64 1.785-2.217 1.487-3.52-.297-1.302-1.441-1.851-2.562-1.188-1.099.64-1.762 2.217-1.488 3.519ZM236.662 206.931c.297 1.303 1.441 1.851 2.562 1.188 1.121-.64 1.785-2.216 1.488-3.519-.298-1.303-1.442-1.851-2.563-1.188-1.099.639-1.762 2.216-1.487 3.519ZM232.385 211.126c.519-1.41.103-2.86-.929-3.239s-2.289.457-2.808 1.867c-.519 1.409-.103 2.859.929 3.238s2.289-.456 2.808-1.866Z"/><path fill="#F8F8F8" d="M744.169 342.356 745.999 555H361.324l382.845-212.644Z"/><path fill="#EAEAEA" d="m743.551 315.71-4.599 56.651L436.928 555h-78.761l385.384-239.29Z"/><path stroke="#fff" stroke-linecap="round" stroke-linejoin="round" stroke-miterlimit="10" stroke-width="2.982" d="m351.554 169.338 3.867 3.268 3.753-9.141"/><path fill="#DFDFDF" d="M418.484 303.849c.389-2.445 5.309-4.433 11.739-5.964-2.219-.709-3.798-2.126-4.096-4.617 0 0 3.844-1.279 8.65-2.491-.961-.799-1.579-1.919-1.762-3.405 0 0 12.333-4.113 20.388-4.456 2.792-.251 9.153-.503 16.91 1.417 7.803 1.942 10.457 5.233 27.756 15.745l91.301 20.248-12.013 44.631-90.317-39.398-11.258 1.417-21.166-5.233s-11.899.845-12.608-4.114c-.801-5.53 13.111-3.268 13.111-3.268l10.229 1.349c2.928-.023 4.256.023 4.736-2.788.298-1.669-1.83-2.811-1.899-3.131-.16-.731-24.736-4.868-24.736-4.868s-26.543 8.684-24.965-1.074ZM452.831 450.495c-52.424-6.445-144.937-67.05-144.937-67.05l26.155-21.344 111.162 47.922 7.62 40.472Z" opacity=".34"/><path fill="#FCE0E0" d="M510.518 438.543c-12.86 11.449-16.682 18.967-35.537 16.499-24.552-3.222-106.837-48.447-128.415-65.358-8.444-6.628-1.762-28.315 8.283-24.407 23.981 9.347 92.834 38.941 115.35 42.415 1.968.297 20.869-1.097 21.784-1.623 1.739-.96 36.337 16.637 18.535 32.474ZM644.402 272.632l-31.623-58.365c-4.485-12.638-8.901-22.784-21.532-18.283l-3.753 1.326c-12.654 4.479-25.4 18.831-20.915 31.468l25.629 62.114c4.508 12.614 56.679-5.622 52.194-18.26ZM443.449 289.84s-26.543 8.707-24.965-1.051c.389-2.445 5.309-4.433 11.739-5.964-2.219-.709-3.798-2.126-4.096-4.617 0 0 3.844-1.279 8.65-2.491-.961-.799-1.579-1.919-1.762-3.405 0 0 12.333-4.113 20.388-4.456 2.792-.251 9.153-.503 16.91 1.417 7.986 1.988 10.595 5.393 29.084 16.522 0 0-.687.618-1.762 1.486a9.415 9.415 0 0 1 5.263 9.232l-.046.457c-.572 6.788-5.812 12.25-12.563 13.095l-14.553 1.828-21.166-5.233s-11.899.846-12.608-4.113c-.801-5.531 13.111-3.268 13.111-3.268l10.229 1.348c2.929-.023 4.256.023 4.737-2.788.297-1.668-1.831-2.811-1.9-3.131-.114-.754-24.69-4.868-24.69-4.868Z"/><path stroke="#F2C8C8" stroke-miterlimit="10" stroke-width="3.683" d="m430.223 282.802 14.668-3.657 25.33 7.839M434.777 275.717c.846-.708 14.873-4.319 14.873-4.319l25.331 7.839"/><path fill="#FCE0E0" d="m498.092 285.018 91.301 20.248-12.036 44.609-93.292-40.701 14.027-24.156Z"/><path fill="#EEE" d="M555.779 302.135c12.585-5.644 23.362-12.272 33.293-19.265 57.069-6.513 53.865-33.547 53.865-33.547 26.842-10.604 46.429 7.427 60.913 48.607 6.888 19.585 25.217 113.601 25.217 113.601 0 .023 11.166 127.655-.183 131.7l-155.234 9.392s4.668-47.168 1.716-80.51c-1.51-17.139-24.21-57.108-30.914-68.283-.458-.755-7.529 10.74-7.757 10.146-4.211-10.946-3.021-21.824 2.471-33.251-10.48-22.532-21.532-61.45 16.613-78.59Z"/><path fill="#EEE" d="m589.622 363.54-76.336 75.94c-24.713 18.076-57.732-22.533-38.579-39.078l62.011-84.692c11.807-14.466 34.575-14.763 44.094-4.137 9.931 11.061 20.274 39.375 8.81 51.967Z"/><path fill="#FCE0E0" d="M302.677 329.17c-.068.068-1.464 1.714-.686 4.159 0 .023 0 .046.023.046 1.418 4.387 8.672 8.227 21.601 11.472.434.205 1.899 1.257 3.912 2.719-4.393-.754-9.633-.228-13.248 1.554-14.348 7.085-19.428 13.141-19.634 13.392l-.274.343.069.434c.022.16.297 1.645 2.105 2.468 3.501 1.6 10.114-.64 19.633-6.627 2.563-1.6 5.858-1.806 9.839-.617-2.631-.32-5.194.091-7.276 1.165-6.499 3.405-18.512 13.323-19.016 13.757l-.48.389.137.594c.023.16.412 1.486 2.128 2.148.595.229 1.282.343 2.06.366-.206.114-.321.183-.321.183l-.869.503.526.868c3.844 6.399 10.938 2.514 16.132-.32a87.55 87.55 0 0 1 1.945-1.051c2.426-1.28 6.133-2.194 8.535-.572 6.659 4.48 11.235 8.227 12.883 10.581.412.572 4.782 4.616 5.354 5.256 10.938 12.044 25.835-1.508 22.379-17.642-12.928-12.683-28.763-33.982-39.037-36.976l-.137-.091-27.848-9.072-.435.571Z"/><path stroke="#F2C8C8" stroke-miterlimit="10" stroke-width="3.683" d="m304.783 376.543 21.829-11.334 11.258 6.01M325.971 358.536l8.078 3.565"/><path fill="#fff" d="M568.021 296.079c49.929-9.918 80.66 23.378 85.031-49.43 0 0-13.661-1.371-17.871 5.942-7.368 12.843-7.895 19.904-28.672 19.744-10.755-.068-24.53-.571-27.665 4.708l-10.823 19.036Z"/><path fill="#D9D9D9" d="m537.999 414.456-24.713 24.567c-8.97 6.558-19.038 5.393-27.298.434 16.956-1.143 25.376-12.615 44.963-31.605 3.181-3.063 7.048 6.604 7.048 6.604Z"/><path fill="#FCE0E0" d="M533.331 155.695s-11.189 13.872-8.352 29.183c.549 2.925 2.059 10.169 2.883 13.529 1.945 8.021 0 8.455-2.38 16.568-.274.914-2.265 3.885-4.576 9.758a4.143 4.143 0 0 0 .069 3.222c.961 2.171 3.249 5.394 8.558 4.594 2.311-.343 2.745 3.199 3.981 8.272 1.945 8.022 5.377 16.18 9.748 18.854 8.398 5.165 37.687-5.508 37.687-5.508l8.535-52.447-56.153-46.025Z"/><path fill="#F2C8C8" d="M582.849 268.108s4.966-13.689 2.426-19.974c-1.9 3.131-4.257 5.873-7.575 7.542l5.149 12.432Z"/><path fill="#D9D9D9" d="M546.123 408.674s26.52 45.249 28.191 58.389c1.67 13.14-.618 85.56-.618 85.56l15.72-.114 22.333-67.849-36.017-108.162c-2.242-6.742-11.647 3.451-16.91 8.25l-29.129 24.201 8.306 5.53 8.124-5.805Z"/><path stroke="#F2C8C8" stroke-linecap="round" stroke-linejoin="round" stroke-miterlimit="10" stroke-width="3.958" d="M534.613 227.293s.503 2.833-1.716 4.616"/><path stroke="#D9D9D9" stroke-linecap="round" stroke-linejoin="round" stroke-miterlimit="10" stroke-width="4.857" d="M576.075 374.098s32.47-44.585-8.054-76.168"/><path fill="#2B2B2B" d="M616.898 226.493c4.507-1.463 7.665-5.53 7.917-10.261.755-13.826 1.144-42.666-6.956-60.605-10.961-24.27-71.393 9.621-71.393 9.621l39.106 62.867c.64 1.029 1.762 2.057 3.135 2.948 5.743 3.794 13.203 3.862 19.221.48l8.97-5.05Z"/><path fill="#2B2B2B" d="M525.757 189.037c.138 1.577-20.845-39.078 20.915-55.12 67.022-25.732 73.361 29.685 73.361 29.685s-25.079 23.996-61.508 10.878c-8.65 6.924-27.322 7.541-32.745 3.085.023 0-.778 2.491-.023 11.472Z"/><path fill="#FCE0E0" d="M583.093 224.099c5.615-.481 9.601-7.457 8.903-15.58-.698-8.123-5.816-14.318-11.432-13.836-5.615.481-9.602 7.456-8.903 15.579.698 8.123 5.816 14.318 11.432 13.837Z"/><path fill="#2A2A2A" d="m598.34 513.477-23.614-5.485-.069-36.29-108.806 65.793L531.249 555h58.144l8.947-41.523Z"/><path fill="#000" d="M653.601 515.122c-33.705 6.193-67.938 13.072-86.244 0-8.42-5.645-1.35-12.432 4.234-9.575 23.18 8.775 50.501 2.902 81.987-1.44 2.746 0 4.989 2.24 4.989 4.982v1.028a4.954 4.954 0 0 1-4.966 5.005Z"/><path fill="#D9D9D9" d="M518.915 433.789s-30.937-23.858-34.85-38.735c-3.89-14.877-14.073 2.011-14.073 2.011s-7.848 21.596 3.479 33.571c11.349 11.975 24.072 32.793 45.444 3.153Z"/><path fill="#D7D7D7" d="m344.117 506.187 33.157-19.105c2.082-1.211 1.83-3.337-.595-4.731l-62.767-36.198c-2.425-1.394-6.109-1.554-8.192-.343l-33.156 19.105c-2.082 1.211-1.831 3.336.595 4.73l62.766 36.199c2.426 1.394 6.11 1.531 8.192.343Z" opacity=".34"/><path fill="snow" d="M264.532 467.886v-.069l.137-2.971 2.334.389 32.104-18.511c2.083-1.211 5.789-1.051 8.192.343l61.393 35.399 3.524.594-.137 2.879c0 .777-.458 1.508-1.396 2.057l-33.156 19.105c-2.083 1.211-5.79 1.051-8.192-.343l-62.766-36.199c-1.373-.731-2.06-1.736-2.037-2.673Z"/><path fill="#000" d="m337.617 504.244 33.157-19.105c2.082-1.211 1.83-3.336-.595-4.73l-62.767-36.199c-2.425-1.394-6.109-1.554-8.192-.343l-33.156 19.105c-2.083 1.212-1.831 3.337.595 4.731l62.766 36.199c2.426 1.394 6.11 1.554 8.192.342Z"/><path fill="#2B2B2B" d="m329.152 503.764 41.325-23.172-63.521-36.61-40.753 23.447 62.949 36.335Z"/><path fill="#00D254" fill-opacity=".64" d="m213.115 534.501-12.15-7.016-9.061-5.233c-1.9-1.097-6.156-1.714-9.68.32-2.196 1.28-2.54 2.811-2.54 3.611 0 1.257.755 2.468 1.991 3.176l14.416 8.319c.16.091.343.137.526.137.366 0 .71-.183.893-.526a1.021 1.021 0 0 0-.389-1.417l-14.416-8.318c-.595-.343-.938-.868-.938-1.371 0-.617.526-1.257 1.487-1.806 2.769-1.599 6.178-1.142 7.597-.32l1.602.937c-.824.183-1.625.458-2.334.869-1.327.777-2.105 1.874-2.105 3.016 0 1.029.572 1.92 1.647 2.514l15.446 8.913c.915.525 2.105.777 3.34.777 1.465 0 2.975-.366 4.188-1.051 1.327-.777 2.105-1.874 2.105-3.017 0-1.006-.572-1.92-1.625-2.514Zm-1.51 3.725c-1.579.914-4.119 1.028-5.446.274l-15.445-8.912c-.229-.137-.595-.389-.595-.731 0-.275.274-.755 1.052-1.212a6.056 6.056 0 0 1 1.968-.662c.092.137.206.274.366.342l13.661 7.885c.16.091.343.137.526.137.366 0 .71-.183.893-.526a.964.964 0 0 0 .137-.48l3.364 1.943c.229.137.595.388.595.731-.023.274-.298.777-1.076 1.211Z" opacity=".34"/><path fill="#00D254" fill-opacity=".64" d="M206.617 532.216c-.183 0-.366-.046-.526-.137l-13.661-7.884a1.045 1.045 0 0 1-.389-1.417 1.048 1.048 0 0 1 1.419-.389l13.66 7.884a1.039 1.039 0 0 1-.503 1.943Z"/><path fill="#00D254" fill-opacity=".64" d="M207.418 537.929c-1.236 0-2.426-.251-3.341-.777l-15.446-8.912c-1.052-.618-1.647-1.509-1.647-2.514 0-1.143.778-2.24 2.105-3.017 2.242-1.302 5.537-1.417 7.528-.274l15.446 8.913c1.053.617 1.647 1.508 1.647 2.513 0 1.143-.778 2.24-2.105 3.017-1.213.708-2.746 1.051-4.187 1.051Zm-14.119-14.191c-1.098 0-2.288.274-3.158.777-.778.457-1.052.936-1.052 1.211 0 .32.366.594.595.731l15.446 8.913c1.327.754 3.867.639 5.446-.275.778-.457 1.052-.937 1.052-1.211 0-.32-.366-.594-.595-.731l-15.445-8.913c-.595-.343-1.419-.502-2.289-.502Z"/><path fill="#00D254" fill-opacity=".64" d="M195.565 534.661c-.183 0-.366-.046-.527-.137l-14.416-8.318c-1.235-.709-1.99-1.92-1.99-3.177 0-.8.32-2.331 2.54-3.611 3.524-2.034 7.78-1.416 9.679-.32l14.416 8.319c.503.297.663.914.389 1.417a1.048 1.048 0 0 1-1.419.388l-14.416-8.318c-1.419-.823-4.828-1.28-7.597.32-.961.548-1.487 1.188-1.487 1.805 0 .503.366 1.028.938 1.371l14.416 8.319c.503.297.664.914.389 1.417a1.084 1.084 0 0 1-.915.525Z"/><path fill="#2B2B2B" d="m210.484 482.877 83.452-48.105v-4.89l-117.249-62.708-83.43 43.237v4.868l117.227 67.598Z"/><path fill="#545454" d="m210.484 478.009 83.452-48.127-117.249-67.599-83.43 48.128 117.227 67.598Z"/><path fill="#2B2B2B" d="m121.472 534.615 86.037-49.613v-5.027L86.622 415.324.584 459.887v5.051l120.888 69.677Z"/><path fill="#545454" d="m121.472 529.588 86.037-49.613-120.887-69.678-86.038 49.59 120.888 69.701Z"/><path fill="#DD4078" d="M89.14 419.671h3.317v-2.217H89.14v2.217Z"/><path fill="#DDD" d="M124.081 522.526s37.687-20.567 73.589-43.283c.138-.091 0-7.244 0-7.244-18.328-11.609-106.311-55.578-106.311-55.578l-74.39 43.215 107.112 62.89Z"/><path fill="#fff" d="M124.081 515.282s37.687-20.567 73.589-43.283c1.144-.845-106.311-62.799-106.311-62.799l-74.39 43.214 107.112 62.868Z"/><path fill="#DDD" d="M210.278 471.976s37.687-20.567 73.59-43.283c.137-.091 0-7.244 0-7.244-18.329-11.609-106.312-55.578-106.312-55.578l-74.39 35.97v7.245l107.112 62.89Z"/><path fill="#fff" d="M210.278 464.755s37.687-20.568 73.59-43.283c1.144-.846-106.312-62.799-106.312-62.799l-74.39 43.214 107.112 62.868Z"/><path fill="snow" d="m19.21 451.089-11.418 6.49 17.688 9.85 23.523.982-29.793-17.322Z"/><path stroke="#DEDEDE" stroke-linecap="round" stroke-linejoin="round" stroke-miterlimit="10" stroke-width="2.786" d="m49.69 452.871 42.858-24.703-9.542-5.508-42.859 24.704 9.542 5.507ZM125.728 502.21l7.185-4.136-7.139-4.114-7.185 4.137 7.139 4.113ZM162.865 472.616l-33.156 18.831M154.148 484.797l-18.992 10.763M113.189 494.875l7.162-4.16-7.117-4.113-7.185 4.159 7.14 4.114ZM150.327 465.28l-33.156 18.808M141.609 477.461l-18.993 10.763M100.649 487.516l7.162-4.136-7.139-4.114-7.162 4.137 7.139 4.113ZM137.764 457.945l-33.156 18.807M129.046 470.125l-18.969 10.764M88.086 480.18l7.185-4.136-7.139-4.113-7.162 4.136 7.116 4.113ZM125.224 450.609l-33.156 18.808M116.506 462.767l-18.97 10.786M75.547 472.845l7.185-4.137-7.14-4.113-7.184 4.136 7.14 4.114ZM112.685 443.273l-33.156 18.808M103.967 455.431l-18.97 10.764M63.007 465.509l7.185-4.136-7.139-4.114-7.185 4.136 7.14 4.114ZM100.146 435.915l-33.157 18.83M91.427 448.095l-18.993 10.764M137.375 401.682l40.479-23.356-9.016-5.188-40.479 23.356 9.016 5.188ZM152.111 410.297l40.479-23.355-9.016-5.211-40.479 23.356 9.016 5.21ZM166.847 418.889l40.502-23.355-9.016-5.188-40.502 23.356 9.016 5.187ZM181.584 427.505l40.501-23.355-9.015-5.211-40.502 23.356 9.016 5.21ZM196.32 436.098l40.501-23.356-9.015-5.187-40.502 23.355 9.016 5.188ZM211.056 444.713l40.502-23.355-9.016-5.211-40.502 23.356 9.016 5.21Z"/><path fill="#EDE1E1" d="M194.764 452.666c1.061 0 1.922-.481 1.922-1.074 0-.594-.861-1.074-1.922-1.074-1.062 0-1.923.48-1.923 1.074 0 .593.861 1.074 1.923 1.074ZM174.421 461.853c0 .594.87 1.074 1.923 1.074 1.052 0 1.922-.48 1.922-1.074 0-.595-.87-1.074-1.922-1.074-1.053 0-1.923.479-1.923 1.074Z"/><path stroke="#433878" stroke-linecap="round" stroke-linejoin="round" stroke-miterlimit="10" stroke-width="2.786" d="M194.764 451.249c0-5.828-4.119-8.181-9.199-5.233-5.08 2.925-9.198 10.032-9.198 15.859"/><path fill="#EDE1E1" d="M177.076 441.948c0 .594.869 1.074 1.922 1.074s1.922-.48 1.922-1.074c0-.594-.869-1.074-1.922-1.074-1.075 0-1.922.48-1.922 1.074ZM160.578 453.306c1.061 0 1.922-.481 1.922-1.074 0-.594-.861-1.075-1.922-1.075-1.062 0-1.922.481-1.922 1.075 0 .593.86 1.074 1.922 1.074Z"/><path stroke="#433878" stroke-linecap="round" stroke-linejoin="round" stroke-miterlimit="10" stroke-width="2.786" d="M178.998 441.605c0-5.827-4.119-8.181-9.199-5.233-5.08 2.925-9.198 10.032-9.198 15.859"/><path fill="#EDE1E1" d="M163.209 433.378c1.062 0 1.922-.481 1.922-1.074 0-.593-.86-1.074-1.922-1.074-1.061 0-1.922.481-1.922 1.074 0 .593.861 1.074 1.922 1.074ZM144.789 443.662c1.061 0 1.922-.481 1.922-1.074 0-.594-.861-1.074-1.922-1.074-1.062 0-1.922.48-1.922 1.074 0 .593.86 1.074 1.922 1.074Z"/><path stroke="#433878" stroke-linecap="round" stroke-linejoin="round" stroke-miterlimit="10" stroke-width="2.786" d="M163.209 431.961c0-5.827-4.119-8.181-9.199-5.233-5.08 2.925-9.198 10.032-9.198 15.86"/><path fill="#EDE1E1" d="M147.008 423.871c1.062 0 1.922-.481 1.922-1.074 0-.593-.86-1.074-1.922-1.074-1.061 0-1.922.481-1.922 1.074 0 .593.861 1.074 1.922 1.074ZM128.588 434.132c1.061 0 1.922-.481 1.922-1.074 0-.593-.861-1.074-1.922-1.074-1.062 0-1.922.481-1.922 1.074 0 .593.86 1.074 1.922 1.074Z"/><path stroke="#433878" stroke-linecap="round" stroke-linejoin="round" stroke-miterlimit="10" stroke-width="2.786" d="M147.008 422.432c0-5.828-4.119-8.182-9.199-5.234-5.08 2.948-9.198 10.033-9.198 15.86"/><path fill="#EDE1E1" d="M131.105 414.639c1.062 0 1.922-.481 1.922-1.074 0-.593-.86-1.074-1.922-1.074-1.062 0-1.922.481-1.922 1.074 0 .593.86 1.074 1.922 1.074ZM110.763 423.848c0 .595.869 1.075 1.922 1.075 1.052 0 1.922-.48 1.922-1.075 0-.594-.87-1.074-1.922-1.074-1.053-.022-1.922.48-1.922 1.074Z"/><path stroke="#433878" stroke-linecap="round" stroke-linejoin="round" stroke-miterlimit="10" stroke-width="2.786" d="M131.105 413.222c0-5.827-4.119-8.181-9.199-5.233-5.08 2.925-9.198 10.032-9.198 15.859"/><path fill="#727272" d="M243.961 399.899a3.67 3.67 0 0 1-.092 1.737v.045c-.366 1.189-1.35 2.057-2.608 2.148l-1.35.115-72.881 5.736a3.229 3.229 0 0 1-1.235-.16l-8.673-1.074-5.354-.914 4.759-1.417 8.078-3.382a2.78 2.78 0 0 1 1.167-.343l69.104-5.439 5.103-.412c.343-.022.687 0 1.007.092.229.046.435.137.641.228.206.092.412.206.595.343.183.137.366.297.549.457.091.092.16.183.251.274.481.526.824 1.212.939 1.966Z" opacity=".34"/><path fill="#00AF46" d="M159.708 404.332c.229 1.988 1.968 3.497 3.867 3.36l77.137-5.531c1.899-.137 3.295-1.874 3.066-3.862-.229-1.988-1.968-3.496-3.867-3.359l-77.137 5.53c-1.922.137-3.295 1.874-3.066 3.862Z"/><path fill="#00D254" d="m159.708 404.332 84.07-6.033c-.229-1.988-1.968-3.496-3.867-3.359l-77.137 5.53c-1.922.137-3.295 1.874-3.066 3.862Z"/><path fill="#D4B3B3" d="m163.575 407.692-10.16-1.234-.457-2.331 8.581-3.314 2.585.754-1.235 1.874 1.761 1.463-1.327 1.188 1.854.8-1.602.8Z"/><path fill="#F7D1D2" d="m153.209 405.406-.251-1.279 8.581-3.314 2.585.754-1.235 1.874 1.762 1.463-11.442.502Z"/><path fill="#56446B" d="m147.924 405.521 5.491.937-.457-2.331-5.034 1.394Z"/><path fill="#7C64BA" d="M243.755 398.299c.228 1.988-1.167 3.725-3.067 3.862l-5.331.389c.412-1.805.503-4.342-.801-7.222l5.309-.388c1.945-.137 3.684 1.371 3.89 3.359Z"/><path stroke="snow" stroke-linecap="round" stroke-linejoin="round" stroke-miterlimit="10" stroke-width="1.883" d="M233.687 402.664s1.281-3.953-1.236-7.199"/><path fill="#545454" d="M753.634 549.513 593 549.215c.16-2.696.664-6.238 1.282-8.935l29.381-124.021c5.308-22.465 21.532-44.929 40.547-56.195L753.611 307v242.513h.023Z"/><path fill="#2A2A2A" d="M745.954 555H632.343l18.329-116.297c8.009-33.822 56.29-55.235 84.939-72.192l10.343-5.782c.091 1.372 0 194.271 0 194.271Z"/><path fill="#fff" d="m296.133 473.233 24.85-14.328c1.144-.663 1.007-1.829-.32-2.606l-8.169-4.707c-1.328-.777-3.341-.846-4.508-.183l-24.851 14.328c-1.144.663-1.006 1.829.321 2.606l8.169 4.707c1.327.777 3.341.869 4.508.183Z"/><path fill="#D7D7D7" d="M293.071 470.452c3.097-.017 5.599-1.483 5.589-3.276-.01-1.792-2.528-3.231-5.624-3.214-3.096.017-5.598 1.483-5.588 3.275.01 1.792 2.527 3.232 5.623 3.215Z"/><path stroke="#D7D7D7" stroke-linecap="round" stroke-linejoin="round" stroke-miterlimit="10" stroke-width="1.923" d="m312.654 454.265-14.988 8.684M315.422 456.642l-7.78 4.502"/><path fill="#00C213" d="m315.4 484.774 24.85-14.329c1.144-.663 1.007-1.828-.32-2.605l-8.169-4.708c-1.328-.777-3.341-.845-4.508-.183l-24.851 14.329c-1.144.663-1.006 1.828.321 2.605l8.169 4.708c1.327.754 3.364.845 4.508.183Z"/><path fill="#fff" d="M312.339 481.97c3.096-.017 5.598-1.483 5.589-3.276-.01-1.792-2.528-3.231-5.624-3.214-3.096.017-5.598 1.483-5.589 3.275.01 1.792 2.528 3.232 5.624 3.215Z"/><path stroke="#fff" stroke-linecap="round" stroke-linejoin="round" stroke-miterlimit="10" stroke-width="1.923" d="m331.944 465.806-14.988 8.684M334.713 468.16l-7.803 4.525"/><path fill="#fff" d="m334.689 496.314 24.851-14.328c1.144-.663 1.007-1.829-.321-2.606l-8.169-4.707c-1.327-.777-3.34-.846-4.507-.183l-24.851 14.329c-1.144.662-1.007 1.828.321 2.605l8.169 4.707c1.327.755 3.34.846 4.507.183Z"/><path fill="#D7D7D7" d="M331.629 493.511c3.096-.017 5.598-1.484 5.589-3.276-.01-1.792-2.528-3.231-5.624-3.215-3.096.017-5.598 1.484-5.589 3.276.01 1.792 2.528 3.231 5.624 3.215Z"/><path stroke="#D7D7D7" stroke-linecap="round" stroke-linejoin="round" stroke-miterlimit="10" stroke-width="1.923" d="m351.211 477.324-14.988 8.684M353.979 479.7l-7.78 4.502"/><path fill="#F2C8C8" d="M582.689 209.376c.709 3.177-1.305 6.353-2.952 6.719-1.625.365-.572-2.583-1.282-5.759-.709-3.177-2.929-5.393-1.281-5.759 1.602-.388 4.805 1.6 5.515 4.799Z"/><path stroke="#F2C8C8" stroke-linecap="round" stroke-linejoin="round" stroke-miterlimit="10" stroke-width="3.958" d="M571.431 209.925s-.206-8.113 3.271-11.541"/><path fill="#DFDFDF" d="m336.749 237.759-32.608 19.196c-9.061 5.325-17.779.892-19.404-9.872l-2.059-13.62c-1.625-10.764 4.462-23.927 13.523-29.252l32.608-19.196c9.061-5.325 17.779-.891 19.404 9.873l2.059 13.62c1.625 10.763-4.462 23.926-13.523 29.251Z" opacity=".34"/><path fill="#00D254" d="m333.362 233.006-32.607 19.196c-9.061 5.325-17.78.891-19.404-9.872l-2.06-13.621c-1.624-10.763 4.462-23.926 13.524-29.251l32.607-19.196c9.062-5.325 17.78-.891 19.404 9.872l2.06 13.62c1.625 10.764-4.462 23.927-13.524 29.252Z"/><path fill="#fff" d="m308.878 230.743-2.86-19.013c-.229-1.531.984-3.337 2.242-3.337l17.437.092c1.395 0 1.716 2.171.549 3.702l-14.576 18.922c-1.053 1.371-2.563 1.165-2.792-.366Z"/><path fill="#DFDFDF" d="m280.664 234.057-12.334 7.267c-7.345 4.319-12.265 14.969-10.96 23.698 1.304 8.707 8.375 12.318 15.72 7.999l12.334-7.267c.297-.183.617-.389.915-.572l-.115.115 7.758.64-2.06-6.445c3.455-5.073 5.309-11.655 4.462-17.414-1.304-8.752-8.375-12.34-15.72-8.021Z" opacity=".34"/><path fill="#E3CFCF" d="m354.689 168.356-14.485 8.524c-5.789 3.405-9.702 11.837-8.672 18.739l.251 1.737c1.03 6.878 6.636 9.735 12.425 6.33l14.485-8.524c5.789-3.405 9.702-11.838 8.672-18.739l-.251-1.737c-1.03-6.902-6.613-9.758-12.425-6.33Z" opacity=".34"/><path fill="#C4C4C4" d="m281.373 266.393-12.333 7.268c-7.345 4.319-14.416.731-15.72-7.999-1.305-8.707 3.615-19.379 10.96-23.698l12.334-7.267c7.345-4.319 14.416-.731 15.72 7.998 1.304 8.707-3.616 19.379-10.961 23.698Z"/><path fill="#C4C4C4" d="m282.174 265.914 7.758.64-2.06-6.468-5.698 5.828Z"/><path fill="#fff" d="M267.265 258.675c.665-1.569.346-3.204-.713-3.652-1.059-.448-2.457.461-3.122 2.03-.666 1.569-.347 3.204.712 3.652 1.059.448 2.457-.461 3.123-2.03ZM274.657 254.327c.666-1.569.347-3.204-.712-3.652-1.059-.448-2.457.461-3.122 2.03-.666 1.569-.347 3.204.712 3.652 1.059.448 2.457-.461 3.122-2.03ZM282.06 249.959c.666-1.569.347-3.204-.712-3.652-1.059-.448-2.457.46-3.123 2.029-.665 1.569-.346 3.204.713 3.652 1.059.448 2.457-.46 3.122-2.029Z"/><path fill="#2B2B2B" d="m361.119 188.032-14.485 8.524c-5.789 3.405-11.395.571-12.425-6.33l-.252-1.737c-1.029-6.879 2.861-15.311 8.673-18.739l14.484-8.524c5.789-3.405 11.396-.572 12.425 6.33l.252 1.737c1.03 6.901-2.86 15.334-8.672 18.739Z"/><path stroke="snow" stroke-linecap="round" stroke-linejoin="round" stroke-miterlimit="10" stroke-width="2.429" d="m338.9 178.456 22.928-13.505M339.861 184.969l22.951-13.505M340.845 191.505l15.811-9.301"/></svg>