<svg width="20" height="20" viewBox="0 0 20 20" fill="none" xmlns="http://www.w3.org/2000/svg">
<g clip-path="url(#clip0_1_326)">
<path d="M8.80758 0C3.95121 0 0 3.95121 0 8.80758C0 13.6642 3.95121 17.6152 8.80758 17.6152C13.6642 17.6152 17.6152 13.6642 17.6152 8.80758C17.6152 3.95121 13.6642 0 8.80758 0ZM8.80758 15.9892C4.8477 15.9892 1.62602 12.7675 1.62602 8.80762C1.62602 4.84773 4.8477 1.62602 8.80758 1.62602C12.7675 1.62602 15.9891 4.8477 15.9891 8.80758C15.9891 12.7675 12.7675 15.9892 8.80758 15.9892Z" fill="#B5B5B5"/>
<path d="M19.7616 18.6122L15.1003 13.951C14.7827 13.6333 14.2683 13.6333 13.9507 13.951C13.6331 14.2683 13.6331 14.7832 13.9507 15.1006L18.6119 19.7618C18.7707 19.9206 18.9786 20 19.1868 20C19.3946 20 19.6027 19.9206 19.7616 19.7618C20.0792 19.4445 20.0792 18.9296 19.7616 18.6122Z" fill="#B5B5B5"/>
</g>
<defs>
<clipPath id="clip0_1_326">
<rect width="20" height="20" fill="white"/>
</clipPath>
</defs>
</svg>
