
<svg xmlns="http://www.w3.org/2000/svg" width="67" height="50" fill="none"><g clip-path="url(#a)"><path fill="#01E45C" d="M64.42 39.31 49.617 24.484c2.778-6.314 1.59-13.97-3.568-19.135-6.719-6.729-17.594-6.73-24.314 0-6.704 6.713-6.704 17.636 0 24.35 5.326 5.334 13.133 6.35 19.365 3.465l14.729 14.75a6.067 6.067 0 0 0 8.593 0 6.097 6.097 0 0 0 0-8.604ZM24.478 26.952c-5.192-5.199-5.192-13.658 0-18.857 5.203-5.21 13.625-5.212 18.828 0 5.192 5.199 5.192 13.658 0 18.857-5.203 5.211-13.625 5.212-18.828 0Zm37.2 18.216c-.858.86-2.247.86-3.106 0L44.499 31.077a17.338 17.338 0 0 0 3.083-3.137l14.096 14.117a2.206 2.206 0 0 1 0 3.112Z"/><path fill="#2B2B2B" d="M1.94 23.57h8.27a1.94 1.94 0 0 0 1.939-1.941 1.94 1.94 0 0 0-1.94-1.942H1.94A1.94 1.94 0 0 0 0 21.629a1.94 1.94 0 0 0 1.94 1.942ZM1.94 31.856h11.37a1.94 1.94 0 0 0 1.94-1.942 1.94 1.94 0 0 0-1.94-1.942H1.94A1.94 1.94 0 0 0 0 29.914a1.94 1.94 0 0 0 1.94 1.942ZM1.94 40.141H21.58a1.94 1.94 0 0 0 1.94-1.942 1.94 1.94 0 0 0-1.94-1.942H1.94A1.94 1.94 0 0 0 0 38.2a1.94 1.94 0 0 0 1.94 1.942ZM44.324 44.543H1.94A1.94 1.94 0 0 0 0 46.485a1.94 1.94 0 0 0 1.94 1.941h42.384a1.94 1.94 0 0 0 1.94-1.941 1.94 1.94 0 0 0-1.94-1.942Z"/></g><defs><clipPath id="a"><path fill="#fff" d="M0 0h66.197v50H0z"/></clipPath></defs></svg>