<svg xmlns="http://www.w3.org/2000/svg" width="28" height="28" fill="none"><g clip-path="url(#a)"><path fill="#2B2B2B" d="m27.707 10.293-7-7A1 1 0 0 0 19 4v3h-7a1 1 0 0 0 0 2h8a1 1 0 0 0 1-1V6.414L25.586 11 21 15.586V14a1 1 0 0 0-1-1H9v-3a1 1 0 0 0-1.707-.707l-7 7a1 1 0 0 0 0 1.414l7 7A1 1 0 0 0 9 24v-3h7a1 1 0 1 0 0-2H8a1 1 0 0 0-1 1v1.586L2.414 17 7 12.414V14a1 1 0 0 0 1 1h11v3a1 1 0 0 0 1.707.707l7-7a1 1 0 0 0 0-1.414Z"/></g><defs><clipPath id="a"><path fill="#fff" d="M0 0h28v28H0z"/></clipPath></defs></svg>