
<svg xmlns="http://www.w3.org/2000/svg" width="60" height="50" fill="none"><g clip-path="url(#a)"><path fill="#01E45C" d="M5.273 49.51h49.454c2.907 0 5.273-2.357 5.273-5.253V5.743C60 2.847 57.634.49 54.727.49H5.273C2.366.49 0 2.847 0 5.743v38.514c0 2.896 2.366 5.252 5.273 5.252ZM3.516 5.742c0-.966.788-1.751 1.757-1.751h49.454c.969 0 1.757.785 1.757 1.75v38.515c0 .966-.788 1.751-1.757 1.751H5.273c-.969 0-1.757-.785-1.757-1.75V5.742Z"/><path fill="#2B2B2B" d="M8.789 39.005h2.177a5.28 5.28 0 0 0 9.943 0H51.21c.97 0 1.758-.784 1.758-1.75 0-.967-.787-1.751-1.758-1.751H20.909a5.28 5.28 0 0 0-9.943 0H8.79c-.97 0-1.758.784-1.758 1.75 0 .968.787 1.751 1.758 1.751Zm7.149-3.501c.969 0 1.757.785 1.757 1.75 0 .966-.788 1.751-1.758 1.751-.969 0-1.757-.785-1.757-1.75 0-.966.788-1.751 1.758-1.751ZM22.044 28.24c.52.32 1.167.347 1.71.077l14.063-7.003a1.75 1.75 0 0 0 .972-1.566 1.75 1.75 0 0 0-.972-1.566l-14.062-7.003a1.764 1.764 0 0 0-1.71.077 1.75 1.75 0 0 0-.834 1.49V26.75c0 .606.315 1.17.834 1.489Zm2.683-12.662 8.374 4.17-8.374 4.17v-8.34Z"/></g><defs><clipPath id="a"><path fill="#fff" d="M0 0h60v50H0z"/></clipPath></defs></svg>