<svg xmlns="http://www.w3.org/2000/svg" width="54" height="50" fill="none"><g clip-path="url(#a)"><path fill="#2B2B2B" d="M4.41 1.903V4.26A5.718 5.718 0 0 0 .604 9.641a5.718 5.718 0 0 0 3.806 5.382v32.803a1.903 1.903 0 0 0 3.806 0V15.023A5.718 5.718 0 0 0 12.02 9.64 5.718 5.718 0 0 0 8.216 4.26V1.903a1.903 1.903 0 0 0-3.806 0ZM8.216 9.64c0 1.05-.854 1.903-1.903 1.903A1.905 1.905 0 0 1 4.41 9.641c0-1.049.853-1.903 1.903-1.903 1.049 0 1.903.854 1.903 1.903Z"/><path fill="#01E45C" d="M24.79 47.826V45.47a5.718 5.718 0 0 1-3.805-5.381 5.718 5.718 0 0 1 3.805-5.382V1.903a1.903 1.903 0 0 1 3.806 0v32.803a5.718 5.718 0 0 1 3.806 5.382 5.718 5.718 0 0 1-3.806 5.381v2.357a1.903 1.903 0 0 1-3.806 0Zm3.806-7.738c0-1.05-.854-1.903-1.903-1.903-1.05 0-1.903.853-1.903 1.903 0 1.049.854 1.903 1.903 1.903 1.05 0 1.903-.854 1.903-1.903Z"/><path fill="#2B2B2B" d="M45.17 1.903V4.26a5.718 5.718 0 0 0-3.805 5.381 5.718 5.718 0 0 0 3.806 5.382v32.803a1.903 1.903 0 0 0 3.805 0V15.023a5.718 5.718 0 0 0 3.806-5.382 5.718 5.718 0 0 0-3.806-5.381V1.903a1.903 1.903 0 0 0-3.805 0Zm3.806 7.738c0 1.05-.853 1.903-1.902 1.903a1.905 1.905 0 0 1-1.903-1.903c0-1.049.853-1.903 1.903-1.903 1.049 0 1.902.854 1.902 1.903Z"/></g><defs><clipPath id="a"><path fill="#fff" d="M0 0h53.261v50H0z"/></clipPath></defs></svg>